<svg width="24" height="25" viewBox="0 0 24 25" fill="none" xmlns="http://www.w3.org/2000/svg">
<g id="CalendarBlank">
<path id="Vector" d="M19.5 3.44336H17.0625V2.50586C17.0625 2.35668 17.0032 2.2136 16.8977 2.10811C16.7923 2.00262 16.6492 1.94336 16.5 1.94336C16.3508 1.94336 16.2077 2.00262 16.1023 2.10811C15.9968 2.2136 15.9375 2.35668 15.9375 2.50586V3.44336H8.0625V2.50586C8.0625 2.35668 8.00324 2.2136 7.89775 2.10811C7.79226 2.00262 7.64918 1.94336 7.5 1.94336C7.35082 1.94336 7.20774 2.00262 7.10225 2.10811C6.99676 2.2136 6.9375 2.35668 6.9375 2.50586V3.44336H4.5C4.1519 3.44336 3.81806 3.58164 3.57192 3.82778C3.32578 4.07392 3.1875 4.40776 3.1875 4.75586V19.7559C3.1875 20.104 3.32578 20.4378 3.57192 20.6839C3.81806 20.9301 4.1519 21.0684 4.5 21.0684H19.5C19.8481 21.0684 20.1819 20.9301 20.4281 20.6839C20.6742 20.4378 20.8125 20.104 20.8125 19.7559V4.75586C20.8125 4.40776 20.6742 4.07392 20.4281 3.82778C20.1819 3.58164 19.8481 3.44336 19.5 3.44336ZM4.5 4.56836H6.9375V5.50586C6.9375 5.65504 6.99676 5.79812 7.10225 5.90361C7.20774 6.0091 7.35082 6.06836 7.5 6.06836C7.64918 6.06836 7.79226 6.0091 7.89775 5.90361C8.00324 5.79812 8.0625 5.65504 8.0625 5.50586V4.56836H15.9375V5.50586C15.9375 5.65504 15.9968 5.79812 16.1023 5.90361C16.2077 6.0091 16.3508 6.06836 16.5 6.06836C16.6492 6.06836 16.7923 6.0091 16.8977 5.90361C17.0032 5.79812 17.0625 5.65504 17.0625 5.50586V4.56836H19.5C19.5497 4.56836 19.5974 4.58811 19.6326 4.62328C19.6677 4.65844 19.6875 4.70613 19.6875 4.75586V7.94336H4.3125V4.75586C4.3125 4.70613 4.33225 4.65844 4.36742 4.62328C4.40258 4.58811 4.45027 4.56836 4.5 4.56836ZM19.5 19.9434H4.5C4.45027 19.9434 4.40258 19.9236 4.36742 19.8884C4.33225 19.8533 4.3125 19.8056 4.3125 19.7559V9.06836H19.6875V19.7559C19.6875 19.8056 19.6677 19.8533 19.6326 19.8884C19.5974 19.9236 19.5497 19.9434 19.5 19.9434Z" fill="#626262"/>
</g>
</svg>
