<svg width="63" height="42" viewBox="0 0 63 42" fill="none" xmlns="http://www.w3.org/2000/svg">
<path d="M22.2 0H26.385V9.96667C26.385 13 28.679 15.4667 31.5 15.4667C34.321 15.4667 36.615 13 36.615 9.96667V0H40.8V11.0667C40.273 16.1 36.336 20 31.531 20C26.571 20 22.51 15.8 22.231 10.5333C22.231 10.3333 22.231 10.1667 22.231 9.96667L22.2 0ZM9.831 0C9.645 0 9.49 0 9.304 0C4.406 0.3 0.5 4.66667 0.5 10.0333C0.5 15.2 4.127 19.4333 8.808 20H19.1V15.5H9.831C7.01 15.5 4.716 13.0333 4.716 10C4.716 6.96667 7.01 4.5 9.831 4.5H19.1V0H9.831ZM53.231 0C53.045 0 52.89 0 52.704 0C47.806 0.3 43.9 4.66667 43.9 10C43.9 15.1667 47.527 19.4 52.208 19.9667H62.5V15.5333L53.231 15.5C50.41 15.5 48.116 13.0333 48.116 10C48.116 6.96667 50.41 4.5 53.231 4.5H62.5V0H53.231ZM53.51 7.76667C52.363 7.76667 51.433 8.76667 51.433 10C51.433 11.2333 52.363 12.2333 53.51 12.2333H57.106V7.76667H53.51Z" fill="#3B3B3B"/>
<path d="M7.14205 38H4.89205L8.98864 26.3636H11.5909L15.6932 38H13.4432L10.3352 28.75H10.2443L7.14205 38ZM7.21591 33.4375H13.3523V35.1307H7.21591V33.4375ZM23.892 31.5795L22.017 31.7841C21.964 31.5947 21.8712 31.4167 21.7386 31.25C21.6098 31.0833 21.4356 30.9489 21.2159 30.8466C20.9962 30.7443 20.7273 30.6932 20.4091 30.6932C19.9811 30.6932 19.6212 30.786 19.3295 30.9716C19.0417 31.1572 18.8996 31.3977 18.9034 31.6932C18.8996 31.947 18.9924 32.1534 19.1818 32.3125C19.375 32.4716 19.6932 32.6023 20.1364 32.7045L21.625 33.0227C22.4508 33.2008 23.0644 33.483 23.4659 33.8693C23.8712 34.2557 24.0758 34.7614 24.0795 35.3864C24.0758 35.9356 23.9148 36.4205 23.5966 36.8409C23.2822 37.2576 22.8447 37.5833 22.2841 37.8182C21.7235 38.053 21.0795 38.1705 20.3523 38.1705C19.2841 38.1705 18.4242 37.947 17.7727 37.5C17.1212 37.0492 16.733 36.4223 16.608 35.6193L18.6136 35.4261C18.7045 35.8201 18.8977 36.1174 19.1932 36.3182C19.4886 36.5189 19.8731 36.6193 20.3466 36.6193C20.8352 36.6193 21.2273 36.5189 21.5227 36.3182C21.822 36.1174 21.9716 35.8693 21.9716 35.5739C21.9716 35.3239 21.875 35.1174 21.6818 34.9545C21.4924 34.7917 21.197 34.6667 20.7955 34.5795L19.3068 34.267C18.4697 34.0928 17.8504 33.7992 17.4489 33.3864C17.0473 32.9697 16.8485 32.4432 16.8523 31.8068C16.8485 31.2689 16.9943 30.803 17.2898 30.4091C17.589 30.0114 18.0038 29.7045 18.5341 29.4886C19.0682 29.2689 19.6837 29.1591 20.3807 29.1591C21.4034 29.1591 22.2083 29.3769 22.7955 29.8125C23.3864 30.2481 23.7519 30.8371 23.892 31.5795ZM32.6733 31.5795L30.7983 31.7841C30.7453 31.5947 30.6525 31.4167 30.5199 31.25C30.3911 31.0833 30.2169 30.9489 29.9972 30.8466C29.7775 30.7443 29.5085 30.6932 29.1903 30.6932C28.7623 30.6932 28.4025 30.786 28.1108 30.9716C27.8229 31.1572 27.6809 31.3977 27.6847 31.6932C27.6809 31.947 27.7737 32.1534 27.9631 32.3125C28.1563 32.4716 28.4744 32.6023 28.9176 32.7045L30.4062 33.0227C31.232 33.2008 31.8456 33.483 32.2472 33.8693C32.6525 34.2557 32.857 34.7614 32.8608 35.3864C32.857 35.9356 32.696 36.4205 32.3778 36.8409C32.0634 37.2576 31.6259 37.5833 31.0653 37.8182C30.5047 38.053 29.8608 38.1705 29.1335 38.1705C28.0653 38.1705 27.2055 37.947 26.554 37.5C25.9025 37.0492 25.5142 36.4223 25.3892 35.6193L27.3949 35.4261C27.4858 35.8201 27.679 36.1174 27.9744 36.3182C28.2699 36.5189 28.6544 36.6193 29.1278 36.6193C29.6165 36.6193 30.0085 36.5189 30.304 36.3182C30.6032 36.1174 30.7528 35.8693 30.7528 35.5739C30.7528 35.3239 30.6563 35.1174 30.4631 34.9545C30.2737 34.7917 29.9782 34.6667 29.5767 34.5795L28.0881 34.267C27.2509 34.0928 26.6316 33.7992 26.2301 33.3864C25.8286 32.9697 25.6297 32.4432 25.6335 31.8068C25.6297 31.2689 25.7756 30.803 26.071 30.4091C26.3703 30.0114 26.785 29.7045 27.3153 29.4886C27.8494 29.2689 28.465 29.1591 29.1619 29.1591C30.1847 29.1591 30.9896 29.3769 31.5767 29.8125C32.1676 30.2481 32.5331 30.8371 32.6733 31.5795ZM38.4205 38.1705C37.5455 38.1705 36.7898 37.9886 36.1534 37.625C35.5208 37.2576 35.0341 36.7386 34.6932 36.0682C34.3523 35.3939 34.1818 34.6004 34.1818 33.6875C34.1818 32.7898 34.3523 32.0019 34.6932 31.3239C35.0379 30.642 35.5189 30.1117 36.1364 29.733C36.7538 29.3504 37.4792 29.1591 38.3125 29.1591C38.8504 29.1591 39.358 29.2462 39.8352 29.4205C40.3163 29.5909 40.7405 29.8561 41.108 30.2159C41.4792 30.5758 41.7708 31.0341 41.983 31.5909C42.1951 32.1439 42.3011 32.803 42.3011 33.5682V34.1989H35.1477V32.8125H40.3295C40.3258 32.4186 40.2405 32.0682 40.0739 31.7614C39.9072 31.4508 39.6742 31.2064 39.375 31.0284C39.0795 30.8504 38.7348 30.7614 38.3409 30.7614C37.9205 30.7614 37.5511 30.8636 37.233 31.0682C36.9148 31.2689 36.6667 31.5341 36.4886 31.8636C36.3144 32.1894 36.2254 32.5473 36.2216 32.9375V34.1477C36.2216 34.6553 36.3144 35.0909 36.5 35.4545C36.6856 35.8144 36.9451 36.0909 37.2784 36.2841C37.6117 36.4735 38.0019 36.5682 38.4489 36.5682C38.7481 36.5682 39.0189 36.5265 39.2614 36.4432C39.5038 36.3561 39.714 36.2292 39.892 36.0625C40.0701 35.8958 40.2045 35.6894 40.2955 35.4432L42.2159 35.6591C42.0947 36.1667 41.8636 36.6098 41.5227 36.9886C41.1856 37.3636 40.7538 37.6553 40.2273 37.8636C39.7008 38.0682 39.0985 38.1705 38.4205 38.1705ZM48.3991 29.2727V30.8636H43.3821V29.2727H48.3991ZM44.6207 27.1818H46.6776V35.375C46.6776 35.6515 46.7192 35.8636 46.8026 36.0114C46.8897 36.1553 47.0033 36.2538 47.1435 36.3068C47.2836 36.3598 47.4389 36.3864 47.6094 36.3864C47.7382 36.3864 47.8556 36.3769 47.9616 36.358C48.0715 36.339 48.1548 36.322 48.2116 36.3068L48.5582 37.9148C48.4484 37.9527 48.2912 37.9943 48.0866 38.0398C47.8859 38.0852 47.6397 38.1117 47.348 38.1193C46.8329 38.1345 46.3688 38.0568 45.956 37.8864C45.5431 37.7121 45.2154 37.4432 44.973 37.0795C44.7344 36.7159 44.617 36.2614 44.6207 35.7159V27.1818ZM56.892 31.5795L55.017 31.7841C54.964 31.5947 54.8712 31.4167 54.7386 31.25C54.6098 31.0833 54.4356 30.9489 54.2159 30.8466C53.9962 30.7443 53.7273 30.6932 53.4091 30.6932C52.9811 30.6932 52.6212 30.786 52.3295 30.9716C52.0417 31.1572 51.8996 31.3977 51.9034 31.6932C51.8996 31.947 51.9924 32.1534 52.1818 32.3125C52.375 32.4716 52.6932 32.6023 53.1364 32.7045L54.625 33.0227C55.4508 33.2008 56.0644 33.483 56.4659 33.8693C56.8712 34.2557 57.0758 34.7614 57.0795 35.3864C57.0758 35.9356 56.9148 36.4205 56.5966 36.8409C56.2822 37.2576 55.8447 37.5833 55.2841 37.8182C54.7235 38.053 54.0795 38.1705 53.3523 38.1705C52.2841 38.1705 51.4242 37.947 50.7727 37.5C50.1212 37.0492 49.733 36.4223 49.608 35.6193L51.6136 35.4261C51.7045 35.8201 51.8977 36.1174 52.1932 36.3182C52.4886 36.5189 52.8731 36.6193 53.3466 36.6193C53.8352 36.6193 54.2273 36.5189 54.5227 36.3182C54.822 36.1174 54.9716 35.8693 54.9716 35.5739C54.9716 35.3239 54.875 35.1174 54.6818 34.9545C54.4924 34.7917 54.197 34.6667 53.7955 34.5795L52.3068 34.267C51.4697 34.0928 50.8504 33.7992 50.4489 33.3864C50.0473 32.9697 49.8485 32.4432 49.8523 31.8068C49.8485 31.2689 49.9943 30.803 50.2898 30.4091C50.589 30.0114 51.0038 29.7045 51.5341 29.4886C52.0682 29.2689 52.6837 29.1591 53.3807 29.1591C54.4034 29.1591 55.2083 29.3769 55.7955 29.8125C56.3864 30.2481 56.7519 30.8371 56.892 31.5795Z" fill="black"/>
</svg>
