<svg width="24" height="25" viewBox="0 0 24 25" fill="none" xmlns="http://www.w3.org/2000/svg">
<g id="Folders">
<path id="Vector" d="M21 6.44336H14.4375L11.7872 4.45586C11.56 4.28547 11.2837 4.19336 10.9997 4.19336H6.75C6.4019 4.19336 6.06806 4.33164 5.82192 4.57778C5.57578 4.82392 5.4375 5.15776 5.4375 5.50586V7.19336H3.75C3.4019 7.19336 3.06806 7.33164 2.82192 7.57778C2.57578 7.82392 2.4375 8.15776 2.4375 8.50586V19.0059C2.4375 19.354 2.57578 19.6878 2.82192 19.9339C3.06806 20.1801 3.4019 20.3184 3.75 20.3184H18.0834C18.4093 20.3181 18.7218 20.1885 18.9522 19.9581C19.1827 19.7277 19.3123 19.4152 19.3125 19.0893V17.3184H21.0834C21.4093 17.3181 21.7218 17.1885 21.9522 16.9581C22.1827 16.7277 22.3123 16.4152 22.3125 16.0893V7.75586C22.3125 7.40776 22.1742 7.07392 21.9281 6.82778C21.6819 6.58164 21.3481 6.44336 21 6.44336ZM18.1875 19.0893C18.1875 19.1169 18.1765 19.1434 18.157 19.1629C18.1375 19.1824 18.111 19.1934 18.0834 19.1934H3.75C3.70027 19.1934 3.65258 19.1736 3.61742 19.1384C3.58225 19.1033 3.5625 19.0556 3.5625 19.0059V8.50586C3.5625 8.45613 3.58225 8.40844 3.61742 8.37328C3.65258 8.33811 3.70027 8.31836 3.75 8.31836H7.99969C8.04026 8.31836 8.07973 8.33152 8.11219 8.35586L10.9125 10.4559C11.0099 10.5289 11.1283 10.5684 11.25 10.5684H18C18.0497 10.5684 18.0974 10.5881 18.1326 10.6233C18.1677 10.6584 18.1875 10.7061 18.1875 10.7559V19.0893ZM21.1875 16.0893C21.1875 16.103 21.1848 16.1165 21.1796 16.1291C21.1743 16.1417 21.1667 16.1532 21.157 16.1629C21.1474 16.1725 21.1359 16.1802 21.1233 16.1854C21.1106 16.1907 21.0971 16.1934 21.0834 16.1934H19.3125V10.7559C19.3125 10.4078 19.1742 10.0739 18.9281 9.82778C18.6819 9.58164 18.3481 9.44336 18 9.44336H11.4375L8.78719 7.45586C8.56 7.28547 8.28367 7.19336 7.99969 7.19336H6.5625V5.50586C6.5625 5.45613 6.58225 5.40844 6.61742 5.37328C6.65258 5.33811 6.70027 5.31836 6.75 5.31836H10.9997C11.0403 5.31836 11.0797 5.33152 11.1122 5.35586L13.9125 7.45586C14.0099 7.52888 14.1283 7.56836 14.25 7.56836H21C21.0497 7.56836 21.0974 7.58811 21.1326 7.62328C21.1677 7.65844 21.1875 7.70613 21.1875 7.75586V16.0893Z" fill="#626262"/>
</g>
</svg>
