<svg width="24" height="25" viewBox="0 0 24 25" fill="none" xmlns="http://www.w3.org/2000/svg">
<g id="House">
<path id="Vector" d="M21 11.7503V20.7503C21 20.9492 20.921 21.14 20.7803 21.2806C20.6397 21.4213 20.4489 21.5003 20.25 21.5003H15C14.8011 21.5003 14.6103 21.4213 14.4697 21.2806C14.329 21.14 14.25 20.9492 14.25 20.7503V15.8753C14.25 15.7758 14.2105 15.6804 14.1402 15.6101C14.0698 15.5398 13.9745 15.5003 13.875 15.5003H10.125C10.0255 15.5003 9.93016 15.5398 9.85983 15.6101C9.78951 15.6804 9.75 15.7758 9.75 15.8753V20.7503C9.75 20.9492 9.67098 21.14 9.53033 21.2806C9.38968 21.4213 9.19891 21.5003 9 21.5003H3.75C3.55109 21.5003 3.36032 21.4213 3.21967 21.2806C3.07902 21.14 3 20.9492 3 20.7503V11.7503C3.00018 11.3525 3.15834 10.9711 3.43969 10.69L10.9397 3.18997C11.221 2.90888 11.6023 2.75098 12 2.75098C12.3977 2.75098 12.779 2.90888 13.0603 3.18997L20.5603 10.69C20.8417 10.9711 20.9998 11.3525 21 11.7503Z" fill="#03449E"/>
</g>
</svg>
