<svg width="24" height="25" viewBox="0 0 24 25" fill="none" xmlns="http://www.w3.org/2000/svg">
<g id="BellSimple">
<path id="Vector" d="M15.7499 21.5C15.7499 21.6989 15.6709 21.8897 15.5303 22.0303C15.3896 22.171 15.1988 22.25 14.9999 22.25H8.99993C8.80102 22.25 8.61025 22.171 8.4696 22.0303C8.32895 21.8897 8.24993 21.6989 8.24993 21.5C8.24993 21.3011 8.32895 21.1103 8.4696 20.9697C8.61025 20.829 8.80102 20.75 8.99993 20.75H14.9999C15.1988 20.75 15.3896 20.829 15.5303 20.9697C15.6709 21.1103 15.7499 21.3011 15.7499 21.5ZM20.7984 18.5C20.6682 18.7292 20.4793 18.9196 20.2511 19.0514C20.0228 19.1833 19.7635 19.2518 19.4999 19.25H4.49993C4.23625 19.2496 3.97731 19.1798 3.74923 19.0475C3.52115 18.9151 3.33198 18.725 3.20079 18.4963C3.0696 18.2676 3.00102 18.0083 3.00196 17.7446C3.00291 17.4809 3.07335 17.2222 3.20618 16.9944C3.72649 16.0981 4.49993 13.5631 4.49993 10.25C4.49993 8.26088 5.29011 6.35322 6.69663 4.9467C8.10315 3.54018 10.0108 2.75 11.9999 2.75C13.9891 2.75 15.8967 3.54018 17.3032 4.9467C18.7098 6.35322 19.4999 8.26088 19.4999 10.25C19.4999 13.5622 20.2743 16.0981 20.7946 16.9944C20.9288 17.2225 20.9997 17.4822 21.0002 17.7468C21.0007 18.0114 20.9307 18.2714 20.7974 18.5H20.7984ZM19.4999 17.75C18.7752 16.5059 17.9999 13.6297 17.9999 10.25C17.9999 8.6587 17.3678 7.13258 16.2426 6.00736C15.1174 4.88214 13.5912 4.25 11.9999 4.25C10.4086 4.25 8.88251 4.88214 7.75729 6.00736C6.63207 7.13258 5.99993 8.6587 5.99993 10.25C5.99993 13.6306 5.22368 16.5069 4.49993 17.75H19.4999Z" fill="#3B3B3B"/>
</g>
</svg>
