<svg width="24" height="25" viewBox="0 0 24 25" fill="none" xmlns="http://www.w3.org/2000/svg">
<g id="BellSimple">
<path id="Vector" d="M15.7499 21.5C15.7499 21.6989 15.6709 21.8897 15.5302 22.0303C15.3896 22.171 15.1988 22.25 14.9999 22.25H8.99989C8.80098 22.25 8.61021 22.171 8.46956 22.0303C8.32891 21.8897 8.24989 21.6989 8.24989 21.5C8.24989 21.3011 8.32891 21.1103 8.46956 20.9697C8.61021 20.829 8.80098 20.75 8.99989 20.75H14.9999C15.1988 20.75 15.3896 20.829 15.5302 20.9697C15.6709 21.1103 15.7499 21.3011 15.7499 21.5ZM20.7946 16.9944C20.2733 16.0981 19.4999 13.5622 19.4999 10.25C19.4999 8.26088 18.7097 6.35322 17.3032 4.9467C15.8967 3.54018 13.989 2.75 11.9999 2.75C10.0108 2.75 8.10311 3.54018 6.69659 4.9467C5.29007 6.35322 4.49989 8.26088 4.49989 10.25C4.49989 13.5631 3.72551 16.0981 3.2052 16.9944C3.07233 17.2222 3.00189 17.4811 3.00099 17.7449C3.00008 18.0086 3.06874 18.268 3.20005 18.4967C3.33135 18.7255 3.52065 18.9156 3.74886 19.0478C3.97708 19.1801 4.23613 19.2498 4.49989 19.25H19.4999C19.7636 19.2496 20.0225 19.1798 20.2506 19.0475C20.4787 18.9151 20.6678 18.725 20.799 18.4963C20.9302 18.2676 20.9988 18.0083 20.9979 17.7446C20.9969 17.4809 20.9265 17.2222 20.7936 16.9944H20.7946Z" fill="#03449E"/>
</g>
</svg>
