<svg width="24" height="25" viewBox="0 0 24 25" fill="none" xmlns="http://www.w3.org/2000/svg">
<g id="ImagesSquare">
<path id="Vector" d="M19.5 3.5H7.5C7.10218 3.5 6.72064 3.65804 6.43934 3.93934C6.15804 4.22064 6 4.60218 6 5V6.5H4.5C4.10218 6.5 3.72064 6.65804 3.43934 6.93934C3.15804 7.22064 3 7.60218 3 8V20C3 20.3978 3.15804 20.7794 3.43934 21.0607C3.72064 21.342 4.10218 21.5 4.5 21.5H16.5C16.8978 21.5 17.2794 21.342 17.5607 21.0607C17.842 20.7794 18 20.3978 18 20V18.5H19.5C19.8978 18.5 20.2794 18.342 20.5607 18.0607C20.842 17.7794 21 17.3978 21 17V5C21 4.60218 20.842 4.22064 20.5607 3.93934C20.2794 3.65804 19.8978 3.5 19.5 3.5ZM7.5 5H19.5V11.5044L17.9344 9.93875C17.6531 9.65766 17.2717 9.49976 16.8741 9.49976C16.4764 9.49976 16.095 9.65766 15.8137 9.93875L8.75344 17H7.5V5ZM16.5 20H4.5V8H6V17C6 17.3978 6.15804 17.7794 6.43934 18.0607C6.72064 18.342 7.10218 18.5 7.5 18.5H16.5V20ZM9.75 8.75C9.75 8.45333 9.83797 8.16332 10.0028 7.91665C10.1676 7.66997 10.4019 7.47771 10.676 7.36418C10.9501 7.25065 11.2517 7.22094 11.5426 7.27882C11.8336 7.3367 12.1009 7.47956 12.3107 7.68934C12.5204 7.89912 12.6633 8.16639 12.7212 8.45736C12.7791 8.74834 12.7494 9.04994 12.6358 9.32403C12.5223 9.59811 12.33 9.83238 12.0834 9.9972C11.8367 10.162 11.5467 10.25 11.25 10.25C10.8522 10.25 10.4706 10.092 10.1893 9.81066C9.90804 9.52936 9.75 9.14782 9.75 8.75Z" fill="#03449E"/>
</g>
</svg>
