<svg width="24" height="25" viewBox="0 0 24 25" fill="none" xmlns="http://www.w3.org/2000/svg">
<g id="ImagesSquare">
<path id="Vector" d="M19.5 3.5H7.5C7.10218 3.5 6.72064 3.65804 6.43934 3.93934C6.15804 4.22064 6 4.60218 6 5V6.5H4.5C4.10218 6.5 3.72064 6.65804 3.43934 6.93934C3.15804 7.22064 3 7.60218 3 8V20C3 20.3978 3.15804 20.7794 3.43934 21.0607C3.72064 21.342 4.10218 21.5 4.5 21.5H16.5C16.8978 21.5 17.2794 21.342 17.5607 21.0607C17.842 20.7794 18 20.3978 18 20V18.5H19.5C19.8978 18.5 20.2794 18.342 20.5607 18.0607C20.842 17.7794 21 17.3978 21 17V5C21 4.60218 20.842 4.22064 20.5607 3.93934C20.2794 3.65804 19.8978 3.5 19.5 3.5ZM7.5 5H19.5V11.5044L17.9344 9.93875C17.6531 9.65766 17.2717 9.49976 16.8741 9.49976C16.4764 9.49976 16.095 9.65766 15.8137 9.93875L8.75344 17H7.5V5ZM16.5 20H4.5V8H6V17C6 17.3978 6.15804 17.7794 6.43934 18.0607C6.72064 18.342 7.10218 18.5 7.5 18.5H16.5V20ZM19.5 17H10.875L16.875 11L19.5 13.625V17ZM11.25 11C11.695 11 12.13 10.868 12.5 10.6208C12.87 10.3736 13.1584 10.0222 13.3287 9.61104C13.499 9.1999 13.5436 8.7475 13.4568 8.31105C13.37 7.87459 13.1557 7.47368 12.841 7.15901C12.5263 6.84434 12.1254 6.63005 11.689 6.54323C11.2525 6.45642 10.8001 6.50097 10.389 6.67127C9.97783 6.84157 9.62643 7.12996 9.37919 7.49997C9.13196 7.86998 9 8.30499 9 8.75C9 9.34674 9.23705 9.91903 9.65901 10.341C10.081 10.7629 10.6533 11 11.25 11ZM11.25 8C11.3983 8 11.5433 8.04399 11.6667 8.1264C11.79 8.20881 11.8861 8.32594 11.9429 8.46299C11.9997 8.60003 12.0145 8.75083 11.9856 8.89632C11.9566 9.0418 11.8852 9.17544 11.7803 9.28033C11.6754 9.38522 11.5418 9.45665 11.3963 9.48559C11.2508 9.51453 11.1 9.49968 10.963 9.44291C10.8259 9.38614 10.7088 9.29001 10.6264 9.16668C10.544 9.04334 10.5 8.89834 10.5 8.75C10.5 8.55109 10.579 8.36032 10.7197 8.21967C10.8603 8.07902 11.0511 8 11.25 8Z" fill="#3B3B3B"/>
</g>
</svg>
