<svg width="18" height="19" viewBox="0 0 18 19" fill="none" xmlns="http://www.w3.org/2000/svg">
<path d="M16.5462 5.97702L12.2789 1.71046C12.1745 1.60596 12.0504 1.52307 11.9139 1.46652C11.7774 1.40997 11.6311 1.38086 11.4833 1.38086C11.3356 1.38086 11.1893 1.40997 11.0528 1.46652C10.9163 1.52307 10.7922 1.60596 10.6878 1.71046L6.9169 5.49327C6.16737 5.25842 4.45596 4.97506 2.67003 6.41717C2.54693 6.51616 2.44605 6.63996 2.37397 6.78051C2.30188 6.92107 2.26021 7.07523 2.25165 7.23295C2.2431 7.39068 2.26785 7.54845 2.32431 7.69597C2.38076 7.8435 2.46765 7.97748 2.57932 8.08921L5.97682 11.4853L2.97729 14.4827C2.87174 14.5883 2.81245 14.7314 2.81245 14.8807C2.81245 15.03 2.87174 15.1731 2.97729 15.2787C3.08284 15.3842 3.22599 15.4435 3.37526 15.4435C3.52453 15.4435 3.66768 15.3842 3.77323 15.2787L6.77065 12.2791L10.166 15.6745C10.2704 15.7793 10.3945 15.8625 10.531 15.9194C10.6676 15.9762 10.8141 16.0055 10.962 16.0057C10.9887 16.0057 11.0147 16.0057 11.0414 16.0057C11.2018 15.9946 11.3579 15.9491 11.4991 15.8723C11.6403 15.7955 11.7634 15.6892 11.8599 15.5606C13.2408 13.7255 13.1079 12.2334 12.7873 11.3419L16.5469 7.56819C16.6513 7.46367 16.7342 7.33961 16.7907 7.20307C16.8472 7.06654 16.8762 6.92022 16.8761 6.77246C16.8761 6.6247 16.8469 6.4784 16.7903 6.34192C16.7337 6.20543 16.6507 6.08144 16.5462 5.97702ZM15.7503 6.77295L11.7235 10.8131C11.6403 10.8966 11.5855 11.0041 11.5667 11.1204C11.5479 11.2367 11.5661 11.356 11.6187 11.4614C12.2839 12.7924 11.4921 14.1748 10.962 14.88L3.37526 7.29256C4.22463 6.60772 5.03745 6.42702 5.65901 6.42702C6.05341 6.42163 6.44456 6.499 6.80721 6.65413C6.91301 6.70708 7.03282 6.72532 7.14958 6.70626C7.26635 6.6872 7.37413 6.6318 7.4576 6.54795L11.4837 2.50569L15.7503 6.77225V6.77295Z" fill="#626262"/>
</svg>
